<svg width="170" height="54" viewBox="0 0 170 54" fill="none" xmlns="http://www.w3.org/2000/svg">
<path d="M0 0H128.583L170 26.5575L128.023 53.6744H0V0Z" fill="#C60E0E"/>
<path d="M20.9628 30.0849C18.9623 32.1956 15.9107 34.0605 12.0538 34.0605C5.82345 34.0605 1.67834 30.2205 1.67834 23.9308C1.67834 17.4377 6.76436 13.5469 10.6128 13.5469C13.5542 13.5469 14.8765 15.1235 15.1478 15.4626L15.8175 13.8859H20.4373V21.8964H15.1732C15.0885 20.0654 14.1476 18.3447 12.0538 18.3447C9.94312 18.3447 8.56142 20.8538 8.56142 23.9308C8.56142 26.7197 10.0618 29.2372 12.8506 29.2372C15.3173 29.2372 17.2585 26.7536 17.5213 26.4654L20.9628 30.0849Z" fill="white"/>
<path fill-rule="evenodd" clip-rule="evenodd" d="M22.4632 20.6841C23.6414 20.006 26.1675 18.6836 28.8715 18.6836C32.3978 18.6836 36.8396 19.9466 36.8396 24.4901V30H38.6028V33.611H32.3131L31.6095 32.3395C30.516 33.7806 28.6935 34.1451 27.6339 34.1451C24.8451 34.1451 21.8444 32.704 21.8444 29.432C21.8444 26.2448 24.6417 24.2358 27.9645 24.2358C29.6938 24.2358 30.7279 25.0581 30.872 25.2276V24.2358C30.872 22.9728 29.6683 22.6592 28.0747 22.6592C26.3455 22.6592 24.8112 23.3627 23.7008 23.9561L22.4632 20.6841ZM30.872 29.5422V28.4742C30.7788 28.3301 30.3719 27.6519 29.1343 27.6519C27.9561 27.6519 27.4305 28.2792 27.4305 29.1523C27.4305 29.9406 28.1086 30.4747 28.9902 30.4747C29.8718 30.4747 30.6008 29.9661 30.872 29.5422Z" fill="white"/>
<path d="M48.0967 33.6122H39.7811V29.9163H41.0695V23.1689H39.8065V19.4985H45.3333L46.2149 21.304C46.9778 19.9477 47.7407 18.7949 50.7753 18.7949V23.8725C48.1306 23.8725 46.6302 24.5252 46.6302 27.0088V29.9163H48.0967V33.6122Z" fill="white"/>
<path fill-rule="evenodd" clip-rule="evenodd" d="M51.9451 35.6713H53.1827V23.2529H51.9451V19.4977H58.6841L59.1842 20.4895C59.7352 20.0911 60.9728 19.2773 62.736 19.2773C67.3218 19.2773 69.6784 22.6595 69.6784 26.669C69.6784 31.1532 66.7624 33.9166 62.9733 33.9166C60.532 33.9166 59.3538 32.9841 59.1503 32.8146V35.6713H60.7355V39.3671H51.9451V35.6713ZM61.2356 23.2529C60.0912 23.2529 59.0316 24.6346 59.1503 26.864C59.1503 28.7797 60.1506 30.2547 61.2695 30.2547C62.4986 30.2547 63.3548 28.8645 63.3548 26.7199C63.3548 25.033 62.5325 23.2529 61.2356 23.2529Z" fill="white"/>
<path fill-rule="evenodd" clip-rule="evenodd" d="M85.4619 31.6614C83.2834 33.4669 80.9354 34.1196 77.8753 34.1196C74.2303 34.1196 70.1191 31.8903 70.1191 26.4652C70.1191 21.8454 73.5861 19.1074 78.0194 19.1074C81.5203 19.1074 84.1989 20.8282 85.0466 23.1932C85.4026 24.185 85.7247 26.355 85.1059 27.9656H75.8494C76.0274 28.7285 76.4088 30.2797 78.8756 30.2797C79.8758 30.2797 81.4016 30.1949 82.9952 28.9234L85.4619 31.6614ZM75.9341 25.1683H80.3759C80.342 24.1002 80.0792 22.9135 78.1974 22.9135C76.4004 22.9135 75.9935 24.4647 75.9341 25.1683Z" fill="white"/>
<path d="M95.6933 33.6106H86.6402V29.9147H87.8693V23.1673H86.6402V19.4969H92.896L93.5741 21.2516C94.5744 19.9207 95.9222 18.9883 97.7786 18.9883C102.339 18.9883 103.102 22.2349 103.102 25.2017V29.9147H104.484V33.6106H97.075V25.9053C97.075 24.9474 97.1598 23.2775 95.4305 23.2775C93.9301 23.2775 93.5741 24.6931 93.5741 25.9053V29.9147H95.6933V33.6106Z" fill="white"/>
<path d="M105.365 19.4975H106.95V16.9036L112.359 15.2422V19.4975H115.156V23.1679H112.359V28.1861C112.359 29.1524 112.155 30.4494 113.299 30.4494C113.681 30.4494 114.596 30.1951 115.156 29.9662V33.5773C114.266 33.9163 112.274 34.1198 111.596 34.1198C107.188 34.1198 107.035 31.8056 106.95 28.1861V23.1679H105.365V19.4975Z" fill="white"/>
<path fill-rule="evenodd" clip-rule="evenodd" d="M131.083 31.6614C128.913 33.4669 126.557 34.1196 123.497 34.1196C119.852 34.1196 115.741 31.8903 115.741 26.4652C115.741 21.8454 119.208 19.1074 123.649 19.1074C127.142 19.1074 129.82 20.8282 130.677 23.1932C131.024 24.185 131.346 26.355 130.736 27.9656H121.471C121.649 28.7285 122.03 30.2797 124.497 30.2797C125.497 30.2797 127.032 30.1949 128.617 28.9234L131.083 31.6614ZM121.556 25.1683H125.997C125.964 24.1002 125.701 22.9135 123.819 22.9135C122.03 22.9135 121.615 24.4647 121.556 25.1683Z" fill="white"/>
<path d="M140.577 33.6122H132.262V29.9163H133.55V23.1689H132.287V19.4985H137.814L138.696 21.304C139.467 19.9477 140.23 18.7949 143.256 18.7949V23.8725C140.611 23.8725 139.111 24.5252 139.111 27.0088V29.9163H140.577V33.6122Z" fill="white"/>
<path d="M144.434 25.1435V19.498H158.98V23.143L151.987 29.9159H155.073V27.9917H159.218V33.6117H144.434V29.9159L151.512 23.143H148.249V25.1435H144.434Z" fill="white"/>
<path fill-rule="evenodd" clip-rule="evenodd" d="M68.3476 49.1216C68.1611 49.1555 67.9661 49.0283 67.9492 48.7317C67.8983 48.0281 69.0766 46.3158 70.187 44.8832C70.8821 43.9847 71.5602 43.1964 72.3147 42.4335C73.0606 41.6536 73.7726 40.9755 74.4847 40.416H75.2052L75.3154 40.5771C75.1882 41.1535 75.0781 41.8994 75.0102 42.5437C74.8577 43.9593 74.8068 45.0867 74.8746 46.9431C74.8831 47.6212 74.9848 48.5113 75.0611 49.0029C74.9848 49.0453 74.9 49.0792 74.7729 49.0792C74.5271 49.0792 74.2219 48.9605 74.0693 48.4011C73.9422 47.7568 73.8744 46.6464 73.8828 45.6461H70.3735C70.0768 46.053 69.7716 46.4768 69.4834 46.9261C68.9325 47.7568 68.5425 48.596 68.3476 49.1216ZM73.8828 45.2562C73.8998 44.1712 74.0185 42.2978 74.2812 41.1704C73.2132 42.1876 71.9671 43.5015 70.6617 45.2308L73.8828 45.2562Z" fill="white"/>
<path d="M78.7399 47.902C78.7654 48.2749 78.9434 48.4699 79.2994 48.4699C79.7148 48.4699 80.0708 48.1647 80.4014 47.7918L80.342 48.1224C80.1047 48.4953 79.5876 49.1141 78.8756 49.1141C78.2992 49.1141 77.9347 48.792 77.8838 48.08C77.8329 47.3934 78.0618 46.7576 78.4348 45.9184C78.6721 45.3929 79.079 44.7063 79.1299 44.435C79.1214 44.2655 79.079 44.1892 78.8925 44.1892L77.4515 44.2231C77.4091 44.2739 76.9683 45.0708 76.7479 45.4861C76.5021 45.9862 76.2732 46.4779 76.1546 46.7322L76.002 46.6474C75.9426 46.4779 76.0528 46.2066 76.18 45.9269C76.4173 45.3505 76.9938 44.062 77.2735 43.4856C77.5278 42.9346 77.6888 42.8414 78.1042 42.8753C78.4009 42.8838 78.367 43.0957 78.0957 43.5026C78.0449 43.5958 77.9431 43.7569 77.8838 43.8501L79.5876 43.7823C79.8504 43.7823 80.0454 44.0366 80.0623 44.3248C80.0284 44.7317 79.5707 45.4946 79.274 46.1558C78.9688 46.8509 78.7145 47.4527 78.7399 47.902Z" fill="white"/>
<path d="M81.2999 47.6735C81.2237 46.5461 81.5966 45.3424 82.1222 44.1896C81.5966 44.0964 81.4949 44.037 81.5119 43.8844C81.5458 43.7658 81.7492 43.7234 82.3595 43.6895C82.7749 42.8672 83.2411 42.1128 83.631 41.5703H84.3431L84.4024 41.689C84.0973 42.2315 83.7667 42.8588 83.3259 43.7658L84.9534 43.7912L84.7754 44.1472L83.1224 44.1981C82.6223 45.2492 82.0289 46.6478 82.1052 47.6566C82.1391 48.1652 82.3934 48.4788 82.9275 48.4788C83.4022 48.4788 83.8429 48.1906 84.1905 47.7668L84.1227 48.1143C83.7836 48.6738 83.3683 49.123 82.5375 49.123C82.0374 49.123 81.3847 48.8264 81.2999 47.6735Z" fill="white"/>
<path fill-rule="evenodd" clip-rule="evenodd" d="M88.7848 49.58C87.7846 49.58 87.2082 48.8425 87.1997 47.9016L87.276 47.8423C87.5557 48.4356 88.0813 48.6814 88.5899 48.673C89.268 48.673 89.9631 48.3593 90.5395 47.3845C90.9634 46.664 91.4804 45.5451 91.9721 44.282C91.8619 44.0871 91.8026 43.7311 92.2772 43.5191C93.2436 41.2474 94.1336 39.9759 95.4306 39.0689L95.4221 39.0265C94.9304 38.9078 94.2523 38.8315 93.2944 38.8315C91.3279 38.84 88.8357 39.6707 88.9968 42.0103C89.0731 43.0444 89.6749 43.6124 90.5734 43.765L90.5226 43.9006C90.4124 43.926 90.3106 43.926 90.2174 43.926C89.0985 43.9345 88.3017 43.1546 88.2084 41.8747C88.0643 39.8487 89.8699 38.3484 93.3962 38.3399C96.9988 38.3314 98.4059 39.6368 98.4907 41.4169C98.5669 42.9851 97.4141 44.1973 95.5916 44.3838C95.7018 45.1636 95.829 46.0028 96.0409 46.7403C96.3545 47.8677 96.8123 48.6645 97.5837 48.656C98.0753 48.656 98.4567 48.4356 98.7789 47.9101L98.7365 48.2661C98.4737 48.7747 98.0075 49.2324 97.1513 49.2324C96.1765 49.2324 95.5069 48.5543 95.1169 47.1641C94.8965 46.4436 94.744 45.4688 94.6422 44.4431C93.9641 44.4346 93.464 44.3414 93.1419 44.2397C92.5485 45.6807 91.9467 46.9861 91.3618 47.8168C90.4717 49.0629 89.6579 49.5715 88.7848 49.58ZM97.5413 41.3915C97.5413 40.5693 97.2361 39.5351 96.0494 39.1621C95.1932 39.6114 94.3795 41.2643 93.2944 43.8752C93.5742 43.9854 94.1845 44.0532 94.5914 44.0532C96.6343 44.0532 97.5752 42.8495 97.5413 41.3915Z" fill="white"/>
<path fill-rule="evenodd" clip-rule="evenodd" d="M100.923 49.1305C99.8215 49.1389 99.1349 48.5795 99.0416 47.2741C98.9653 46.1806 99.3892 45.1295 100.042 44.4513C100.627 43.8156 101.398 43.502 102.102 43.502C102.831 43.502 103.424 43.858 103.483 44.7395C103.543 45.672 102.78 46.3501 102 46.6044C101.313 46.8333 100.601 46.8502 100.042 46.7909C100.016 46.9011 100.025 47.1554 100.033 47.2571C100.101 48.2065 100.534 48.6049 101.263 48.6049C101.975 48.6049 102.627 48.2319 103.127 47.6386L103.093 47.9861C102.661 48.571 101.907 49.1305 100.923 49.1305ZM100.067 46.5112C100.534 46.579 101.178 46.5366 101.763 46.3247C102.432 46.0704 102.975 45.5109 102.949 44.7904C102.932 44.2479 102.661 43.9173 102.178 43.9173C101.737 43.9173 101.263 44.2055 100.932 44.587C100.466 45.1125 100.161 45.85 100.067 46.5112Z" fill="white"/>
<path fill-rule="evenodd" clip-rule="evenodd" d="M104.696 45.8258C105.162 44.7747 105.603 44.0203 105.908 43.7321H106.56L106.645 43.8847C106.51 44.105 106.272 44.495 106.137 44.8171L106.154 44.8425C106.772 44.0796 107.544 43.6134 108.264 43.6134C109.01 43.6049 109.536 44.0542 109.604 45.029C109.68 46.0716 109.324 47.0719 108.807 47.8263C108.196 48.6825 107.434 49.1402 106.51 49.1232C105.62 49.1232 105.094 48.6486 104.916 47.9535C104.628 48.7503 104.382 49.4284 104.178 50.2252C103.899 51.378 103.721 52.2935 103.712 52.9462C103.305 52.8869 103.068 52.6156 103.034 52.0308C102.992 51.3696 103.204 50.2083 103.517 49.1317C103.916 47.7331 104.348 46.6057 104.696 45.8258ZM105.026 47.6398C105.23 48.4366 105.73 48.7333 106.272 48.7333C107.027 48.7333 107.603 48.1908 108.035 47.394C108.425 46.6735 108.654 45.8343 108.603 45.1138C108.552 44.478 108.222 44.1474 107.764 44.1474C107.222 44.1559 106.51 44.6306 105.933 45.3596C105.628 46.0038 105.289 46.843 105.026 47.6398Z" fill="white"/>
<path d="M114.062 47.9108C114.054 47.7752 114.054 47.6819 114.062 47.5887L114.045 47.5802C113.511 48.3007 112.647 49.0467 111.663 49.0552C110.807 49.0552 110.485 48.4279 110.443 47.7752C110.409 47.2411 110.561 46.5206 110.875 45.7662C111.24 44.8677 111.782 43.9946 112.087 43.7233H112.774L112.867 43.8589C112.528 44.4099 112.147 45.0542 111.723 46.1816C111.46 46.8766 111.324 47.4192 111.358 47.8345C111.384 48.2244 111.596 48.5296 112.07 48.5296C112.63 48.5211 113.444 48.0719 114.088 47.1818C114.164 46.7325 114.342 46.1477 114.503 45.7153C114.876 44.7999 115.334 44.0031 115.622 43.7148H116.334L116.427 43.8505C116.131 44.376 115.825 44.927 115.452 45.8171C115.046 46.7749 114.842 47.3005 114.885 47.826C114.91 48.2075 115.096 48.4025 115.436 48.4025C115.817 48.4025 116.173 48.1142 116.504 47.7243L116.461 48.0549C116.224 48.4279 115.775 49.0467 115.029 49.0467C114.478 49.0467 114.113 48.6568 114.062 47.9108Z" fill="white"/>
<path fill-rule="evenodd" clip-rule="evenodd" d="M120.445 39.9245L121.149 39.916L121.225 40.0516C120.742 40.7891 120.31 41.5435 119.886 42.3658C119.513 43.0778 119.072 44.0103 118.767 44.7562L118.792 44.7901C119.369 44.0526 120.115 43.5525 120.911 43.5525C121.598 43.5525 122.191 43.9594 122.259 44.9766C122.344 46.0701 121.971 47.0788 121.437 47.7824C120.776 48.6724 119.928 49.1132 118.945 49.1132C118.038 49.1132 117.267 48.7063 117.182 47.5535C117.122 46.7143 117.317 45.9175 117.665 45.0444C117.97 44.2052 118.479 43.1032 119.03 42.086C119.445 41.3147 120.021 40.3907 120.445 39.9245ZM120.7 47.384C121.073 46.6719 121.301 45.8327 121.251 45.0698C121.2 44.4256 120.869 44.095 120.411 44.095C119.877 44.095 119.199 44.5443 118.563 45.3157C118.165 46.2735 117.953 47.0534 118.004 47.7909C118.055 48.5114 118.53 48.7657 118.962 48.7657C119.589 48.7657 120.225 48.2656 120.7 47.384Z" fill="white"/>
<path d="M125.099 44.2483C124.616 45.2739 124.099 46.698 124.167 47.6305C124.2 48.173 124.48 48.3934 124.938 48.3934C125.446 48.3934 125.819 48.1221 126.159 47.7152L126.099 48.0628C125.769 48.5883 125.319 49.0546 124.565 49.0546C124.048 49.0546 123.378 48.7579 123.293 47.5711C123.217 46.4607 123.565 45.1553 124.463 43.2904C125.124 41.9426 125.794 40.8406 126.515 39.9082H127.261L127.337 40.0438C126.735 40.9593 125.887 42.5105 125.099 44.2483Z" fill="white"/>
<path d="M128.244 45.4431C127.93 46.1975 127.608 46.9774 127.65 47.6216C127.693 48.1217 127.964 48.393 128.447 48.3845C128.964 48.3845 129.312 48.1133 129.651 47.7064L129.592 48.0539C129.261 48.5795 128.812 49.0457 128.066 49.0457C127.523 49.0542 126.879 48.7321 126.803 47.5538C126.743 46.8163 126.905 46.1128 127.311 45.2058C127.583 44.6039 127.973 43.9597 128.252 43.6884H128.981L129.066 43.841C128.82 44.2564 128.515 44.8158 128.244 45.4431ZM128.507 42.1542C128.473 41.6879 128.803 41.4082 129.125 41.4082C129.397 41.4082 129.685 41.6116 129.719 42.0355C129.753 42.4847 129.422 42.7729 129.092 42.7729C128.803 42.7729 128.541 42.578 128.507 42.1542Z" fill="white"/>
<path d="M134.347 44.4777C134.101 44.1725 133.66 43.9606 133.22 43.9691C132.694 43.9691 132.169 44.2234 131.745 44.8083C131.355 45.3508 131.05 46.2663 131.109 47.1224C131.185 48.1142 131.694 48.5634 132.33 48.5634C132.974 48.5634 133.55 48.2583 134.076 47.6564L134.05 48.0209C133.533 48.7075 132.813 49.072 132.033 49.072C130.999 49.072 130.227 48.4448 130.134 47.1563C130.058 46.0459 130.405 45.1134 130.999 44.4014C131.533 43.7911 132.279 43.4435 132.965 43.4435C133.669 43.435 134.254 43.7826 134.449 44.2318L134.347 44.4777Z" fill="white"/>
</svg>
